{
  "version": "opxyloop-1.0",
  "meta": {
    "tempo": 76,
    "ppq": 96,
    "stepsPerBar": 16,
    "key": "F",
    "mode": "ionian"
  },
  "deviceProfile": {
    "portName": "OP-XY"
  },
  "tracks": [
    {
      "id": "lead-force",
      "name": "Binary Sunset Lead",
      "type": "axis",
      "midiChannel": 0,
      "role": "lead",
      "pattern": {
        "lengthBars": 16,
        "steps": [
          {
            "idx": 0,
            "events": [
              {
                "pitch": 60,
                "velocity": 100,
                "lengthSteps": 4
              }
            ]
          },
          {
            "idx": 4,
            "events": [
              {
                "pitch": 65,
                "velocity": 104,
                "lengthSteps": 4
              }
            ]
          },
          {
            "idx": 8,
            "events": [
              {
                "pitch": 67,
                "velocity": 106,
                "lengthSteps": 4
              }
            ]
          },
          {
            "idx": 12,
            "events": [
              {
                "pitch": 70,
                "velocity": 110,
                "lengthSteps": 8
              }
            ]
          },
          {
            "idx": 20,
            "events": [
              {
                "pitch": 67,
                "velocity": 104,
                "lengthSteps": 4
              }
            ]
          },
          {
            "idx": 24,
            "events": [
              {
                "pitch": 65,
                "velocity": 102,
                "lengthSteps": 4
              }
            ]
          },
          {
            "idx": 28,
            "events": [
              {
                "pitch": 62,
                "velocity": 100,
                "lengthSteps": 4
              }
            ]
          },
          {
            "idx": 32,
            "events": [
              {
                "pitch": 65,
                "velocity": 102,
                "lengthSteps": 4
              }
            ]
          },
          {
            "idx": 36,
            "events": [
              {
                "pitch": 67,
                "velocity": 104,
                "lengthSteps": 4
              }
            ]
          },
          {
            "idx": 40,
            "events": [
              {
                "pitch": 65,
                "velocity": 100,
                "lengthSteps": 4
              }
            ]
          },
          {
            "idx": 44,
            "events": [
              {
                "pitch": 60,
                "velocity": 96,
                "lengthSteps": 16
              }
            ]
          },
          {
            "idx": 64,
            "events": [
              {
                "pitch": 60,
                "velocity": 100,
                "lengthSteps": 4
              }
            ]
          },
          {
            "idx": 68,
            "events": [
              {
                "pitch": 65,
                "velocity": 104,
                "lengthSteps": 4
              }
            ]
          },
          {
            "idx": 72,
            "events": [
              {
                "pitch": 67,
                "velocity": 108,
                "lengthSteps": 4
              }
            ]
          },
          {
            "idx": 76,
            "events": [
              {
                "pitch": 72,
                "velocity": 112,
                "lengthSteps": 8
              }
            ]
          },
          {
            "idx": 84,
            "events": [
              {
                "pitch": 69,
                "velocity": 106,
                "lengthSteps": 4
              }
            ]
          },
          {
            "idx": 88,
            "events": [
              {
                "pitch": 67,
                "velocity": 102,
                "lengthSteps": 4
              }
            ]
          },
          {
            "idx": 92,
            "events": [
              {
                "pitch": 65,
                "velocity": 100,
                "lengthSteps": 4
              }
            ]
          },
          {
            "idx": 96,
            "events": [
              {
                "pitch": 62,
                "velocity": 100,
                "lengthSteps": 4
              }
            ]
          },
          {
            "idx": 100,
            "events": [
              {
                "pitch": 65,
                "velocity": 102,
                "lengthSteps": 4
              }
            ]
          },
          {
            "idx": 104,
            "events": [
              {
                "pitch": 67,
                "velocity": 104,
                "lengthSteps": 4
              }
            ]
          },
          {
            "idx": 108,
            "events": [
              {
                "pitch": 65,
                "velocity": 100,
                "lengthSteps": 4
              }
            ]
          },
          {
            "idx": 112,
            "events": [
              {
                "pitch": 60,
                "velocity": 94,
                "lengthSteps": 12
              }
            ]
          },
          {
            "idx": 124,
            "events": [
              {
                "pitch": 65,
                "velocity": 100,
                "lengthSteps": 4
              }
            ]
          },
          {
            "idx": 128,
            "events": [
              {
                "pitch": 60,
                "velocity": 102,
                "lengthSteps": 4
              }
            ]
          },
          {
            "idx": 132,
            "events": [
              {
                "pitch": 65,
                "velocity": 106,
                "lengthSteps": 4
              }
            ]
          },
          {
            "idx": 136,
            "events": [
              {
                "pitch": 69,
                "velocity": 108,
                "lengthSteps": 4
              }
            ]
          },
          {
            "idx": 140,
            "events": [
              {
                "pitch": 72,
                "velocity": 112,
                "lengthSteps": 8
              }
            ]
          },
          {
            "idx": 148,
            "events": [
              {
                "pitch": 70,
                "velocity": 108,
                "lengthSteps": 4
              }
            ]
          },
          {
            "idx": 152,
            "events": [
              {
                "pitch": 69,
                "velocity": 106,
                "lengthSteps": 4
              }
            ]
          },
          {
            "idx": 156,
            "events": [
              {
                "pitch": 65,
                "velocity": 102,
                "lengthSteps": 4
              }
            ]
          },
          {
            "idx": 160,
            "events": [
              {
                "pitch": 62,
                "velocity": 100,
                "lengthSteps": 4
              }
            ]
          },
          {
            "idx": 164,
            "events": [
              {
                "pitch": 65,
                "velocity": 104,
                "lengthSteps": 4
              }
            ]
          },
          {
            "idx": 168,
            "events": [
              {
                "pitch": 69,
                "velocity": 108,
                "lengthSteps": 4
              }
            ]
          },
          {
            "idx": 172,
            "events": [
              {
                "pitch": 70,
                "velocity": 112,
                "lengthSteps": 8
              }
            ]
          },
          {
            "idx": 180,
            "events": [
              {
                "pitch": 74,
                "velocity": 116,
                "lengthSteps": 4
              }
            ]
          },
          {
            "idx": 184,
            "events": [
              {
                "pitch": 72,
                "velocity": 112,
                "lengthSteps": 4
              }
            ]
          },
          {
            "idx": 188,
            "events": [
              {
                "pitch": 70,
                "velocity": 108,
                "lengthSteps": 4
              }
            ]
          },
          {
            "idx": 192,
            "events": [
              {
                "pitch": 69,
                "velocity": 104,
                "lengthSteps": 4
              }
            ]
          },
          {
            "idx": 196,
            "events": [
              {
                "pitch": 67,
                "velocity": 102,
                "lengthSteps": 4
              }
            ]
          },
          {
            "idx": 200,
            "events": [
              {
                "pitch": 69,
                "velocity": 106,
                "lengthSteps": 4
              }
            ]
          },
          {
            "idx": 204,
            "events": [
              {
                "pitch": 70,
                "velocity": 110,
                "lengthSteps": 4
              }
            ]
          },
          {
            "idx": 208,
            "events": [
              {
                "pitch": 72,
                "velocity": 112,
                "lengthSteps": 4
              }
            ]
          },
          {
            "idx": 212,
            "events": [
              {
                "pitch": 74,
                "velocity": 116,
                "lengthSteps": 4
              }
            ]
          },
          {
            "idx": 216,
            "events": [
              {
                "pitch": 77,
                "velocity": 118,
                "lengthSteps": 8
              }
            ]
          },
          {
            "idx": 224,
            "events": [
              {
                "pitch": 74,
                "velocity": 112,
                "lengthSteps": 4
              }
            ]
          },
          {
            "idx": 228,
            "events": [
              {
                "pitch": 72,
                "velocity": 108,
                "lengthSteps": 4
              }
            ]
          },
          {
            "idx": 232,
            "events": [
              {
                "pitch": 69,
                "velocity": 104,
                "lengthSteps": 4
              }
            ]
          },
          {
            "idx": 236,
            "events": [
              {
                "pitch": 62,
                "velocity": 98,
                "lengthSteps": 4
              }
            ]
          },
          {
            "idx": 240,
            "events": [
              {
                "pitch": 65,
                "velocity": 92,
                "lengthSteps": 16
              }
            ]
          }
        ]
      }
    },
    {
      "id": "pad-twin-suns",
      "name": "Twin Suns Pad",
      "type": "dissolve",
      "midiChannel": 1,
      "role": "pad",
      "pattern": {
        "lengthBars": 16,
        "steps": [
          {
            "idx": 0,
            "events": [
              {
                "pitch": 53,
                "velocity": 80,
                "lengthSteps": 16
              },
              {
                "pitch": 57,
                "velocity": 78,
                "lengthSteps": 16
              },
              {
                "pitch": 60,
                "velocity": 80,
                "lengthSteps": 16
              }
            ]
          },
          {
            "idx": 16,
            "events": [
              {
                "pitch": 52,
                "velocity": 78,
                "lengthSteps": 16
              },
              {
                "pitch": 55,
                "velocity": 76,
                "lengthSteps": 16
              },
              {
                "pitch": 60,
                "velocity": 78,
                "lengthSteps": 16
              },
              {
                "pitch": 64,
                "velocity": 76,
                "lengthSteps": 16
              }
            ]
          },
          {
            "idx": 32,
            "events": [
              {
                "pitch": 58,
                "velocity": 80,
                "lengthSteps": 16
              },
              {
                "pitch": 62,
                "velocity": 78,
                "lengthSteps": 16
              },
              {
                "pitch": 65,
                "velocity": 80,
                "lengthSteps": 16
              }
            ]
          },
          {
            "idx": 48,
            "events": [
              {
                "pitch": 57,
                "velocity": 80,
                "lengthSteps": 16
              },
              {
                "pitch": 60,
                "velocity": 78,
                "lengthSteps": 16
              },
              {
                "pitch": 65,
                "velocity": 80,
                "lengthSteps": 16
              },
              {
                "pitch": 69,
                "velocity": 78,
                "lengthSteps": 16
              }
            ]
          },
          {
            "idx": 64,
            "events": [
              {
                "pitch": 55,
                "velocity": 78,
                "lengthSteps": 16
              },
              {
                "pitch": 58,
                "velocity": 76,
                "lengthSteps": 16
              },
              {
                "pitch": 62,
                "velocity": 78,
                "lengthSteps": 16
              }
            ]
          },
          {
            "idx": 80,
            "events": [
              {
                "pitch": 53,
                "velocity": 80,
                "lengthSteps": 16
              },
              {
                "pitch": 57,
                "velocity": 78,
                "lengthSteps": 16
              },
              {
                "pitch": 62,
                "velocity": 80,
                "lengthSteps": 16
              },
              {
                "pitch": 65,
                "velocity": 78,
                "lengthSteps": 16
              }
            ]
          },
          {
            "idx": 96,
            "events": [
              {
                "pitch": 48,
                "velocity": 76,
                "lengthSteps": 16
              },
              {
                "pitch": 52,
                "velocity": 74,
                "lengthSteps": 16
              },
              {
                "pitch": 55,
                "velocity": 76,
                "lengthSteps": 16
              },
              {
                "pitch": 60,
                "velocity": 74,
                "lengthSteps": 16
              }
            ]
          },
          {
            "idx": 112,
            "events": [
              {
                "pitch": 48,
                "velocity": 76,
                "lengthSteps": 16
              },
              {
                "pitch": 53,
                "velocity": 78,
                "lengthSteps": 16
              },
              {
                "pitch": 55,
                "velocity": 76,
                "lengthSteps": 16
              },
              {
                "pitch": 60,
                "velocity": 78,
                "lengthSteps": 16
              }
            ]
          },
          {
            "idx": 128,
            "events": [
              {
                "pitch": 50,
                "velocity": 82,
                "lengthSteps": 16
              },
              {
                "pitch": 53,
                "velocity": 80,
                "lengthSteps": 16
              },
              {
                "pitch": 57,
                "velocity": 82,
                "lengthSteps": 16
              },
              {
                "pitch": 62,
                "velocity": 80,
                "lengthSteps": 16
              }
            ]
          },
          {
            "idx": 144,
            "events": [
              {
                "pitch": 48,
                "velocity": 82,
                "lengthSteps": 16
              },
              {
                "pitch": 53,
                "velocity": 80,
                "lengthSteps": 16
              },
              {
                "pitch": 57,
                "velocity": 82,
                "lengthSteps": 16
              },
              {
                "pitch": 60,
                "velocity": 80,
                "lengthSteps": 16
              }
            ]
          },
          {
            "idx": 160,
            "events": [
              {
                "pitch": 58,
                "velocity": 84,
                "lengthSteps": 16
              },
              {
                "pitch": 62,
                "velocity": 82,
                "lengthSteps": 16
              },
              {
                "pitch": 65,
                "velocity": 84,
                "lengthSteps": 16
              },
              {
                "pitch": 70,
                "velocity": 82,
                "lengthSteps": 16
              }
            ]
          },
          {
            "idx": 176,
            "events": [
              {
                "pitch": 55,
                "velocity": 82,
                "lengthSteps": 16
              },
              {
                "pitch": 60,
                "velocity": 80,
                "lengthSteps": 16
              },
              {
                "pitch": 62,
                "velocity": 82,
                "lengthSteps": 16
              },
              {
                "pitch": 67,
                "velocity": 80,
                "lengthSteps": 16
              }
            ]
          },
          {
            "idx": 192,
            "events": [
              {
                "pitch": 48,
                "velocity": 80,
                "lengthSteps": 16
              },
              {
                "pitch": 52,
                "velocity": 78,
                "lengthSteps": 16
              },
              {
                "pitch": 55,
                "velocity": 80,
                "lengthSteps": 16
              },
              {
                "pitch": 60,
                "velocity": 78,
                "lengthSteps": 16
              }
            ]
          },
          {
            "idx": 208,
            "events": [
              {
                "pitch": 52,
                "velocity": 82,
                "lengthSteps": 16
              },
              {
                "pitch": 55,
                "velocity": 80,
                "lengthSteps": 16
              },
              {
                "pitch": 58,
                "velocity": 82,
                "lengthSteps": 16
              },
              {
                "pitch": 62,
                "velocity": 80,
                "lengthSteps": 16
              }
            ]
          },
          {
            "idx": 224,
            "events": [
              {
                "pitch": 57,
                "velocity": 84,
                "lengthSteps": 16
              },
              {
                "pitch": 60,
                "velocity": 82,
                "lengthSteps": 16
              },
              {
                "pitch": 65,
                "velocity": 84,
                "lengthSteps": 16
              },
              {
                "pitch": 69,
                "velocity": 82,
                "lengthSteps": 16
              }
            ]
          },
          {
            "idx": 240,
            "events": [
              {
                "pitch": 53,
                "velocity": 82,
                "lengthSteps": 16
              },
              {
                "pitch": 57,
                "velocity": 80,
                "lengthSteps": 16
              },
              {
                "pitch": 60,
                "velocity": 82,
                "lengthSteps": 16
              },
              {
                "pitch": 65,
                "velocity": 80,
                "lengthSteps": 16
              }
            ]
          }
        ]
      },
      "ccLanes": [
        {
          "id": "pad-cutoff",
          "dest": "name:cutoff",
          "mode": "ramp",
          "points": [
            {
              "t": {
                "bar": 0,
                "step": 0
              },
              "v": 48
            },
            {
              "t": {
                "bar": 7,
                "step": 15
              },
              "v": 80
            },
            {
              "t": {
                "bar": 15,
                "step": 15
              },
              "v": 96
            }
          ]
        },
        {
          "id": "pad-reverb",
          "dest": "name:send_fx1",
          "mode": "ramp",
          "points": [
            {
              "t": {
                "bar": 0,
                "step": 0
              },
              "v": 72
            },
            {
              "t": {
                "bar": 8,
                "step": 0
              },
              "v": 88
            },
            {
              "t": {
                "bar": 15,
                "step": 15
              },
              "v": 102
            }
          ]
        }
      ]
    },
    {
      "id": "accomp-holo-arps",
      "name": "Binary Dunes Arp",
      "type": "axis",
      "midiChannel": 2,
      "role": "accompaniment",
      "pattern": {
        "lengthBars": 16,
        "steps": [
          {
            "idx": 0,
            "events": [
              {
                "pitch": 53,
                "velocity": 76,
                "lengthSteps": 4
              }
            ]
          },
          {
            "idx": 4,
            "events": [
              {
                "pitch": 57,
                "velocity": 74,
                "lengthSteps": 4
              }
            ]
          },
          {
            "idx": 8,
            "events": [
              {
                "pitch": 60,
                "velocity": 76,
                "lengthSteps": 4
              }
            ]
          },
          {
            "idx": 12,
            "events": [
              {
                "pitch": 57,
                "velocity": 74,
                "lengthSteps": 4
              }
            ]
          },
          {
            "idx": 16,
            "events": [
              {
                "pitch": 52,
                "velocity": 74,
                "lengthSteps": 4
              }
            ]
          },
          {
            "idx": 20,
            "events": [
              {
                "pitch": 55,
                "velocity": 72,
                "lengthSteps": 4
              }
            ]
          },
          {
            "idx": 24,
            "events": [
              {
                "pitch": 60,
                "velocity": 74,
                "lengthSteps": 4
              }
            ]
          },
          {
            "idx": 28,
            "events": [
              {
                "pitch": 55,
                "velocity": 72,
                "lengthSteps": 4
              }
            ]
          },
          {
            "idx": 32,
            "events": [
              {
                "pitch": 58,
                "velocity": 76,
                "lengthSteps": 4
              }
            ]
          },
          {
            "idx": 36,
            "events": [
              {
                "pitch": 62,
                "velocity": 74,
                "lengthSteps": 4
              }
            ]
          },
          {
            "idx": 40,
            "events": [
              {
                "pitch": 65,
                "velocity": 76,
                "lengthSteps": 4
              }
            ]
          },
          {
            "idx": 44,
            "events": [
              {
                "pitch": 62,
                "velocity": 74,
                "lengthSteps": 4
              }
            ]
          },
          {
            "idx": 48,
            "events": [
              {
                "pitch": 57,
                "velocity": 78,
                "lengthSteps": 4
              }
            ]
          },
          {
            "idx": 52,
            "events": [
              {
                "pitch": 60,
                "velocity": 76,
                "lengthSteps": 4
              }
            ]
          },
          {
            "idx": 56,
            "events": [
              {
                "pitch": 65,
                "velocity": 78,
                "lengthSteps": 4
              }
            ]
          },
          {
            "idx": 60,
            "events": [
              {
                "pitch": 60,
                "velocity": 76,
                "lengthSteps": 4
              }
            ]
          },
          {
            "idx": 64,
            "events": [
              {
                "pitch": 55,
                "velocity": 74,
                "lengthSteps": 4
              }
            ]
          },
          {
            "idx": 68,
            "events": [
              {
                "pitch": 58,
                "velocity": 72,
                "lengthSteps": 4
              }
            ]
          },
          {
            "idx": 72,
            "events": [
              {
                "pitch": 62,
                "velocity": 74,
                "lengthSteps": 4
              }
            ]
          },
          {
            "idx": 76,
            "events": [
              {
                "pitch": 58,
                "velocity": 72,
                "lengthSteps": 4
              }
            ]
          },
          {
            "idx": 80,
            "events": [
              {
                "pitch": 53,
                "velocity": 74,
                "lengthSteps": 4
              }
            ]
          },
          {
            "idx": 84,
            "events": [
              {
                "pitch": 57,
                "velocity": 72,
                "lengthSteps": 4
              }
            ]
          },
          {
            "idx": 88,
            "events": [
              {
                "pitch": 62,
                "velocity": 74,
                "lengthSteps": 4
              }
            ]
          },
          {
            "idx": 92,
            "events": [
              {
                "pitch": 57,
                "velocity": 72,
                "lengthSteps": 4
              }
            ]
          },
          {
            "idx": 96,
            "events": [
              {
                "pitch": 48,
                "velocity": 72,
                "lengthSteps": 4
              }
            ]
          },
          {
            "idx": 100,
            "events": [
              {
                "pitch": 52,
                "velocity": 70,
                "lengthSteps": 4
              }
            ]
          },
          {
            "idx": 104,
            "events": [
              {
                "pitch": 55,
                "velocity": 72,
                "lengthSteps": 4
              }
            ]
          },
          {
            "idx": 108,
            "events": [
              {
                "pitch": 52,
                "velocity": 70,
                "lengthSteps": 4
              }
            ]
          },
          {
            "idx": 112,
            "events": [
              {
                "pitch": 48,
                "velocity": 72,
                "lengthSteps": 4
              }
            ]
          },
          {
            "idx": 116,
            "events": [
              {
                "pitch": 53,
                "velocity": 70,
                "lengthSteps": 4
              }
            ]
          },
          {
            "idx": 120,
            "events": [
              {
                "pitch": 55,
                "velocity": 72,
                "lengthSteps": 4
              }
            ]
          },
          {
            "idx": 124,
            "events": [
              {
                "pitch": 53,
                "velocity": 70,
                "lengthSteps": 4
              }
            ]
          },
          {
            "idx": 128,
            "events": [
              {
                "pitch": 50,
                "velocity": 76,
                "lengthSteps": 4
              }
            ]
          },
          {
            "idx": 132,
            "events": [
              {
                "pitch": 53,
                "velocity": 74,
                "lengthSteps": 4
              }
            ]
          },
          {
            "idx": 136,
            "events": [
              {
                "pitch": 57,
                "velocity": 76,
                "lengthSteps": 4
              }
            ]
          },
          {
            "idx": 140,
            "events": [
              {
                "pitch": 53,
                "velocity": 74,
                "lengthSteps": 4
              }
            ]
          },
          {
            "idx": 144,
            "events": [
              {
                "pitch": 48,
                "velocity": 76,
                "lengthSteps": 4
              }
            ]
          },
          {
            "idx": 148,
            "events": [
              {
                "pitch": 53,
                "velocity": 74,
                "lengthSteps": 4
              }
            ]
          },
          {
            "idx": 152,
            "events": [
              {
                "pitch": 57,
                "velocity": 76,
                "lengthSteps": 4
              }
            ]
          },
          {
            "idx": 156,
            "events": [
              {
                "pitch": 53,
                "velocity": 74,
                "lengthSteps": 4
              }
            ]
          },
          {
            "idx": 160,
            "events": [
              {
                "pitch": 58,
                "velocity": 78,
                "lengthSteps": 4
              }
            ]
          },
          {
            "idx": 164,
            "events": [
              {
                "pitch": 62,
                "velocity": 76,
                "lengthSteps": 4
              }
            ]
          },
          {
            "idx": 168,
            "events": [
              {
                "pitch": 65,
                "velocity": 78,
                "lengthSteps": 4
              }
            ]
          },
          {
            "idx": 172,
            "events": [
              {
                "pitch": 62,
                "velocity": 76,
                "lengthSteps": 4
              }
            ]
          },
          {
            "idx": 176,
            "events": [
              {
                "pitch": 55,
                "velocity": 76,
                "lengthSteps": 4
              }
            ]
          },
          {
            "idx": 180,
            "events": [
              {
                "pitch": 60,
                "velocity": 74,
                "lengthSteps": 4
              }
            ]
          },
          {
            "idx": 184,
            "events": [
              {
                "pitch": 62,
                "velocity": 76,
                "lengthSteps": 4
              }
            ]
          },
          {
            "idx": 188,
            "events": [
              {
                "pitch": 60,
                "velocity": 74,
                "lengthSteps": 4
              }
            ]
          },
          {
            "idx": 192,
            "events": [
              {
                "pitch": 48,
                "velocity": 74,
                "lengthSteps": 4
              }
            ]
          },
          {
            "idx": 196,
            "events": [
              {
                "pitch": 52,
                "velocity": 72,
                "lengthSteps": 4
              }
            ]
          },
          {
            "idx": 200,
            "events": [
              {
                "pitch": 55,
                "velocity": 74,
                "lengthSteps": 4
              }
            ]
          },
          {
            "idx": 204,
            "events": [
              {
                "pitch": 52,
                "velocity": 72,
                "lengthSteps": 4
              }
            ]
          },
          {
            "idx": 208,
            "events": [
              {
                "pitch": 52,
                "velocity": 76,
                "lengthSteps": 4
              }
            ]
          },
          {
            "idx": 212,
            "events": [
              {
                "pitch": 55,
                "velocity": 74,
                "lengthSteps": 4
              }
            ]
          },
          {
            "idx": 216,
            "events": [
              {
                "pitch": 58,
                "velocity": 76,
                "lengthSteps": 4
              }
            ]
          },
          {
            "idx": 220,
            "events": [
              {
                "pitch": 55,
                "velocity": 74,
                "lengthSteps": 4
              }
            ]
          },
          {
            "idx": 224,
            "events": [
              {
                "pitch": 57,
                "velocity": 78,
                "lengthSteps": 4
              }
            ]
          },
          {
            "idx": 228,
            "events": [
              {
                "pitch": 60,
                "velocity": 76,
                "lengthSteps": 4
              }
            ]
          },
          {
            "idx": 232,
            "events": [
              {
                "pitch": 65,
                "velocity": 78,
                "lengthSteps": 4
              }
            ]
          },
          {
            "idx": 236,
            "events": [
              {
                "pitch": 60,
                "velocity": 76,
                "lengthSteps": 4
              }
            ]
          },
          {
            "idx": 240,
            "events": [
              {
                "pitch": 53,
                "velocity": 78,
                "lengthSteps": 4
              }
            ]
          },
          {
            "idx": 244,
            "events": [
              {
                "pitch": 57,
                "velocity": 76,
                "lengthSteps": 4
              }
            ]
          },
          {
            "idx": 248,
            "events": [
              {
                "pitch": 60,
                "velocity": 78,
                "lengthSteps": 4
              }
            ]
          },
          {
            "idx": 252,
            "events": [
              {
                "pitch": 65,
                "velocity": 80,
                "lengthSteps": 4
              }
            ]
          }
        ]
      }
    }
  ],
  "docVersion": 2
}
